<svg xmlns="http://www.w3.org/2000/svg" viewBox="0 0 281 281" fill="none">
  <path d="M121.846 7.6155C132 -2.5385 148.462 -2.5385 158.616 7.6155L272.845 121.845C282.999 131.999 282.999 148.461 272.845 158.615L158.616 272.845C148.462 282.999 132 282.999 121.846 272.845L7.6155 158.615C-2.5385 148.461 -2.5385 131.999 7.6155 121.845L121.846 7.6155Z" fill="#C8982E"/>
  <path d="M140.23 0.230469L144.516 129.883L239.225 41.2355L150.577 135.944L280.23 140.23L150.577 144.516L239.225 239.225L144.516 150.577L140.23 280.23L135.944 150.577L41.2355 239.225L129.883 144.516L0.230469 140.23L129.883 135.944L41.2355 41.2355L135.944 129.883L140.23 0.230469Z" fill="#F0F8FF"/>
</svg>
